# xmcd
#
# Track frame offsets: 
#        150
#        24277
#        39610
#        58210
#        91629
#        105020
#        124240
#        139217
#        165745
#        184787
#        202857
#
# Disc length: 3053 seconds
#
# Revision: 4
# Processed by: cddbd v1.5.1PL2 Copyright (c) Steve Scherf et al.
# Submitted via: ExactAudioCopy v0.95b4
#
DISCID=870beb0b
DTITLE=Various Artist - Blues Anthology, Discoverin' the Blues
DYEAR=1900
DGENRE=Blues
TTITLE0=Buddy Guy and Junior Wells - Country Girl
TTITLE1=Homesick James - Lonesome Road
TTITLE2=Troyce Key and J.J. Malone - Sweet Taters and Possum Meat
TTITLE3=U.P. Wilson and Paul Orta - Alibi Blues
TTITLE4=Jimmy Reed - Hard Walkin' Hanna
TTITLE5=Sonny Boy Williamson - Don't Start Me To Talkin'
TTITLE6=Greg Fingers Taylor - Soul Survivor
TTITLE7=Mississippi Fred McDowell - 61 Highway
TTITLE8=Brian Knight - Trouble In Mind
TTITLE9=Todd Sharpville with Paul Lamb - All Night Long
TTITLE10=Earl Hooker - Two Bugs In A Rug
EXTD=ID3G:   0
EXTT0=
EXTT1=
EXTT2=
EXTT3=
EXTT4=
EXTT5=
EXTT6=
EXTT7=
EXTT8=
EXTT9=
EXTT10=
PLAYORDER=
